G04 EAGLE Gerber RS-274X export*
G75*
%MOMM*%
%FSLAX34Y34*%
%LPD*%
%INTop Copper*%
%IPPOS*%
%AMOC8*
5,1,8,0,0,1.08239X$1,22.5*%
G01*
%ADD10R,1.000000X1.100000*%
%ADD11C,1.524000*%
%ADD12R,1.100000X1.000000*%
%ADD13R,1.400000X0.600000*%
%ADD14C,0.600000*%

G36*
X769938Y464372D02*
X769938Y464372D01*
X769975Y464370D01*
X770048Y464392D01*
X770124Y464405D01*
X770155Y464424D01*
X770190Y464434D01*
X770251Y464481D01*
X770317Y464520D01*
X770340Y464548D01*
X770369Y464570D01*
X770410Y464634D01*
X770458Y464694D01*
X770470Y464728D01*
X770489Y464759D01*
X770506Y464834D01*
X770530Y464906D01*
X770529Y464942D01*
X770537Y464978D01*
X770525Y465081D01*
X770523Y465131D01*
X770518Y465145D01*
X770515Y465164D01*
X769839Y467687D01*
X769839Y474313D01*
X771554Y480712D01*
X774866Y486449D01*
X779551Y491134D01*
X785288Y494446D01*
X791687Y496161D01*
X798313Y496161D01*
X799836Y495753D01*
X799872Y495750D01*
X799906Y495738D01*
X799983Y495740D01*
X800059Y495734D01*
X800094Y495743D01*
X800131Y495745D01*
X800202Y495773D01*
X800276Y495794D01*
X800305Y495815D01*
X800338Y495829D01*
X800395Y495880D01*
X800457Y495926D01*
X800477Y495956D01*
X800504Y495980D01*
X800539Y496048D01*
X800582Y496112D01*
X800590Y496148D01*
X800607Y496180D01*
X800622Y496282D01*
X800633Y496331D01*
X800631Y496346D01*
X800634Y496365D01*
X800634Y754205D01*
X800623Y754270D01*
X800621Y754336D01*
X800603Y754379D01*
X800595Y754426D01*
X800561Y754483D01*
X800536Y754543D01*
X800505Y754578D01*
X800480Y754619D01*
X800429Y754661D01*
X800385Y754709D01*
X800343Y754731D01*
X800306Y754760D01*
X800244Y754781D01*
X800185Y754812D01*
X800131Y754820D01*
X800094Y754832D01*
X800054Y754831D01*
X800000Y754839D01*
X793687Y754839D01*
X787288Y756554D01*
X781551Y759866D01*
X776866Y764551D01*
X773554Y770288D01*
X771839Y776687D01*
X771839Y783313D01*
X773051Y787836D01*
X773054Y787872D01*
X773066Y787906D01*
X773064Y787983D01*
X773070Y788059D01*
X773060Y788094D01*
X773059Y788131D01*
X773031Y788202D01*
X773010Y788276D01*
X772989Y788305D01*
X772975Y788338D01*
X772923Y788395D01*
X772878Y788457D01*
X772848Y788477D01*
X772824Y788504D01*
X772755Y788539D01*
X772692Y788582D01*
X772656Y788590D01*
X772624Y788607D01*
X772522Y788622D01*
X772473Y788633D01*
X772458Y788631D01*
X772439Y788634D01*
X510293Y788634D01*
X510258Y788628D01*
X510222Y788630D01*
X510148Y788608D01*
X510073Y788595D01*
X510041Y788576D01*
X510007Y788566D01*
X509945Y788520D01*
X509879Y788480D01*
X509857Y788452D01*
X509828Y788431D01*
X509786Y788366D01*
X509738Y788306D01*
X509726Y788272D01*
X509707Y788241D01*
X509691Y788166D01*
X509666Y788094D01*
X509667Y788058D01*
X509660Y788022D01*
X509671Y787919D01*
X509673Y787869D01*
X509679Y787855D01*
X509681Y787836D01*
X511161Y782313D01*
X511161Y775687D01*
X509446Y769288D01*
X506134Y763551D01*
X501449Y758866D01*
X495712Y755554D01*
X489313Y753839D01*
X486000Y753839D01*
X485935Y753828D01*
X485869Y753826D01*
X485826Y753808D01*
X485779Y753800D01*
X485722Y753766D01*
X485662Y753741D01*
X485627Y753710D01*
X485586Y753685D01*
X485545Y753634D01*
X485496Y753590D01*
X485474Y753548D01*
X485445Y753511D01*
X485424Y753449D01*
X485393Y753390D01*
X485385Y753336D01*
X485373Y753299D01*
X485374Y753259D01*
X485366Y753205D01*
X485366Y495795D01*
X485377Y495730D01*
X485379Y495664D01*
X485397Y495621D01*
X485405Y495574D01*
X485439Y495517D01*
X485464Y495457D01*
X485495Y495422D01*
X485520Y495381D01*
X485571Y495339D01*
X485615Y495291D01*
X485657Y495269D01*
X485694Y495240D01*
X485756Y495219D01*
X485815Y495188D01*
X485869Y495180D01*
X485906Y495168D01*
X485946Y495169D01*
X486000Y495161D01*
X488313Y495161D01*
X494712Y493446D01*
X500449Y490134D01*
X505134Y485449D01*
X508446Y479712D01*
X510161Y473313D01*
X510161Y466687D01*
X509753Y465164D01*
X509750Y465128D01*
X509738Y465094D01*
X509740Y465017D01*
X509734Y464941D01*
X509743Y464906D01*
X509745Y464869D01*
X509773Y464799D01*
X509794Y464724D01*
X509815Y464695D01*
X509829Y464662D01*
X509880Y464605D01*
X509926Y464543D01*
X509956Y464523D01*
X509980Y464496D01*
X510048Y464461D01*
X510112Y464418D01*
X510148Y464410D01*
X510180Y464393D01*
X510282Y464378D01*
X510331Y464367D01*
X510346Y464369D01*
X510365Y464366D01*
X769903Y464366D01*
X769938Y464372D01*
G37*
%LPC*%
G36*
X642379Y560739D02*
X642379Y560739D01*
X638644Y562286D01*
X635786Y565144D01*
X634239Y568879D01*
X634239Y583921D01*
X635786Y587656D01*
X638644Y590514D01*
X642379Y592061D01*
X656421Y592061D01*
X660156Y590514D01*
X660923Y589747D01*
X660958Y589722D01*
X660986Y589691D01*
X661049Y589659D01*
X661107Y589618D01*
X661148Y589608D01*
X661186Y589588D01*
X661276Y589575D01*
X661324Y589562D01*
X661345Y589565D01*
X661371Y589561D01*
X671205Y589561D01*
X671270Y589572D01*
X671336Y589574D01*
X671379Y589592D01*
X671426Y589600D01*
X671483Y589634D01*
X671543Y589659D01*
X671578Y589690D01*
X671619Y589715D01*
X671661Y589766D01*
X671709Y589810D01*
X671731Y589852D01*
X671760Y589889D01*
X671781Y589951D01*
X671812Y590010D01*
X671820Y590064D01*
X671832Y590101D01*
X671831Y590141D01*
X671839Y590195D01*
X671839Y592255D01*
X671828Y592320D01*
X671826Y592386D01*
X671808Y592429D01*
X671800Y592476D01*
X671766Y592533D01*
X671741Y592593D01*
X671710Y592628D01*
X671685Y592669D01*
X671634Y592711D01*
X671590Y592759D01*
X671548Y592781D01*
X671511Y592810D01*
X671449Y592831D01*
X671390Y592862D01*
X671336Y592870D01*
X671299Y592882D01*
X671259Y592881D01*
X671205Y592889D01*
X658879Y592889D01*
X655144Y594436D01*
X652286Y597294D01*
X650739Y601029D01*
X650739Y611071D01*
X651189Y612157D01*
X651198Y612199D01*
X651216Y612237D01*
X651222Y612307D01*
X651237Y612376D01*
X651231Y612419D01*
X651235Y612461D01*
X651213Y612549D01*
X651206Y612599D01*
X651196Y612617D01*
X651189Y612643D01*
X650739Y613729D01*
X650739Y623771D01*
X651189Y624857D01*
X651198Y624899D01*
X651216Y624937D01*
X651222Y625007D01*
X651237Y625076D01*
X651231Y625119D01*
X651235Y625161D01*
X651213Y625249D01*
X651206Y625299D01*
X651196Y625317D01*
X651189Y625343D01*
X650739Y626429D01*
X650739Y636471D01*
X651189Y637557D01*
X651198Y637599D01*
X651216Y637637D01*
X651222Y637707D01*
X651237Y637776D01*
X651231Y637819D01*
X651235Y637861D01*
X651213Y637949D01*
X651206Y637999D01*
X651196Y638017D01*
X651189Y638043D01*
X650739Y639129D01*
X650739Y649171D01*
X652286Y652906D01*
X655144Y655764D01*
X658879Y657311D01*
X676921Y657311D01*
X680656Y655764D01*
X683514Y652906D01*
X684080Y651538D01*
X684116Y651483D01*
X684143Y651423D01*
X684176Y651389D01*
X684201Y651349D01*
X684254Y651310D01*
X684300Y651263D01*
X684343Y651243D01*
X684381Y651214D01*
X684444Y651196D01*
X684503Y651168D01*
X684550Y651164D01*
X684596Y651150D01*
X684662Y651155D01*
X684727Y651150D01*
X684780Y651163D01*
X684820Y651165D01*
X684856Y651182D01*
X684909Y651195D01*
X687482Y652261D01*
X690805Y652261D01*
X690870Y652272D01*
X690936Y652274D01*
X690979Y652292D01*
X691026Y652300D01*
X691083Y652334D01*
X691143Y652359D01*
X691178Y652390D01*
X691219Y652415D01*
X691261Y652466D01*
X691309Y652510D01*
X691331Y652552D01*
X691360Y652589D01*
X691381Y652651D01*
X691412Y652710D01*
X691420Y652764D01*
X691432Y652801D01*
X691431Y652841D01*
X691439Y652895D01*
X691439Y663121D01*
X692202Y664962D01*
X692218Y665038D01*
X692243Y665111D01*
X692242Y665147D01*
X692250Y665182D01*
X692239Y665258D01*
X692237Y665336D01*
X692223Y665368D01*
X692218Y665404D01*
X692181Y665472D01*
X692152Y665543D01*
X692128Y665570D01*
X692111Y665601D01*
X692053Y665652D01*
X692001Y665709D01*
X691969Y665725D01*
X691943Y665749D01*
X691870Y665776D01*
X691801Y665812D01*
X691761Y665818D01*
X691733Y665828D01*
X691686Y665829D01*
X691616Y665839D01*
X615714Y665839D01*
X615672Y665832D01*
X615630Y665834D01*
X615563Y665812D01*
X615493Y665800D01*
X615457Y665778D01*
X615416Y665765D01*
X615344Y665711D01*
X615300Y665685D01*
X615287Y665669D01*
X615266Y665653D01*
X608347Y658734D01*
X608322Y658700D01*
X608291Y658671D01*
X608259Y658608D01*
X608218Y658550D01*
X608208Y658509D01*
X608188Y658471D01*
X608175Y658382D01*
X608162Y658333D01*
X608165Y658312D01*
X608161Y658286D01*
X608161Y657945D01*
X608172Y657880D01*
X608174Y657814D01*
X608192Y657771D01*
X608200Y657724D01*
X608234Y657667D01*
X608259Y657607D01*
X608290Y657572D01*
X608315Y657531D01*
X608366Y657489D01*
X608410Y657441D01*
X608452Y657419D01*
X608489Y657390D01*
X608551Y657369D01*
X608610Y657338D01*
X608664Y657330D01*
X608701Y657318D01*
X608741Y657319D01*
X608795Y657311D01*
X622921Y657311D01*
X626656Y655764D01*
X629514Y652906D01*
X631061Y649171D01*
X631061Y639129D01*
X630611Y638043D01*
X630602Y638001D01*
X630584Y637963D01*
X630578Y637893D01*
X630563Y637824D01*
X630569Y637781D01*
X630565Y637739D01*
X630587Y637651D01*
X630594Y637601D01*
X630604Y637583D01*
X630611Y637557D01*
X631061Y636471D01*
X631061Y626429D01*
X630611Y625343D01*
X630602Y625301D01*
X630584Y625263D01*
X630578Y625193D01*
X630563Y625124D01*
X630569Y625081D01*
X630565Y625039D01*
X630587Y624951D01*
X630594Y624901D01*
X630604Y624883D01*
X630611Y624857D01*
X631061Y623771D01*
X631061Y613729D01*
X629514Y609994D01*
X626656Y607136D01*
X622921Y605589D01*
X553632Y605589D01*
X548795Y607593D01*
X546855Y609533D01*
X546810Y609564D01*
X546772Y609603D01*
X546719Y609628D01*
X546671Y609661D01*
X546618Y609675D01*
X546569Y609698D01*
X546510Y609702D01*
X546453Y609717D01*
X546399Y609712D01*
X546345Y609716D01*
X546276Y609699D01*
X546230Y609694D01*
X546203Y609680D01*
X546164Y609671D01*
X545557Y609419D01*
X523243Y609419D01*
X516708Y612126D01*
X511706Y617128D01*
X508999Y623663D01*
X508999Y630737D01*
X511706Y637272D01*
X513886Y639451D01*
X513923Y639506D01*
X513968Y639553D01*
X513987Y639597D01*
X514014Y639636D01*
X514030Y639699D01*
X514056Y639760D01*
X514058Y639807D01*
X514070Y639853D01*
X514063Y639918D01*
X514066Y639984D01*
X514051Y640029D01*
X514047Y640076D01*
X514017Y640135D01*
X513997Y640198D01*
X513965Y640242D01*
X513947Y640277D01*
X513918Y640304D01*
X513886Y640348D01*
X511706Y642528D01*
X508999Y649063D01*
X508999Y656137D01*
X511706Y662672D01*
X516708Y667674D01*
X523243Y670381D01*
X545557Y670381D01*
X552092Y667674D01*
X553819Y665947D01*
X553854Y665922D01*
X553883Y665891D01*
X553946Y665859D01*
X554003Y665818D01*
X554045Y665808D01*
X554082Y665788D01*
X554172Y665775D01*
X554221Y665762D01*
X554242Y665765D01*
X554268Y665761D01*
X561929Y665761D01*
X561970Y665768D01*
X562013Y665766D01*
X562080Y665788D01*
X562149Y665800D01*
X562186Y665822D01*
X562226Y665835D01*
X562299Y665889D01*
X562343Y665915D01*
X562356Y665931D01*
X562377Y665947D01*
X562644Y666214D01*
X566379Y667761D01*
X580421Y667761D01*
X581450Y667335D01*
X581514Y667321D01*
X581575Y667297D01*
X581623Y667297D01*
X581669Y667287D01*
X581734Y667296D01*
X581800Y667296D01*
X581844Y667312D01*
X581891Y667318D01*
X581949Y667350D01*
X582011Y667372D01*
X582047Y667403D01*
X582088Y667425D01*
X582132Y667475D01*
X582182Y667517D01*
X582210Y667564D01*
X582236Y667594D01*
X582250Y667631D01*
X582263Y667653D01*
X582264Y667654D01*
X582264Y667655D01*
X582278Y667678D01*
X583843Y671455D01*
X602545Y690157D01*
X607382Y692161D01*
X769618Y692161D01*
X774455Y690157D01*
X785157Y679455D01*
X787161Y674618D01*
X787161Y585382D01*
X785157Y580545D01*
X775455Y570843D01*
X770618Y568839D01*
X719071Y568839D01*
X719030Y568832D01*
X718987Y568834D01*
X718920Y568812D01*
X718851Y568800D01*
X718814Y568778D01*
X718774Y568765D01*
X718701Y568711D01*
X718657Y568685D01*
X718644Y568669D01*
X718623Y568653D01*
X718356Y568386D01*
X714621Y566839D01*
X699579Y566839D01*
X695844Y568386D01*
X693370Y570861D01*
X693316Y570898D01*
X693268Y570943D01*
X693224Y570962D01*
X693186Y570989D01*
X693122Y571005D01*
X693061Y571031D01*
X693014Y571033D01*
X692968Y571045D01*
X692903Y571038D01*
X692837Y571041D01*
X692792Y571026D01*
X692745Y571022D01*
X692686Y570992D01*
X692624Y570972D01*
X692579Y570940D01*
X692544Y570922D01*
X692517Y570893D01*
X692473Y570861D01*
X690646Y569034D01*
X686855Y565243D01*
X682018Y563239D01*
X661371Y563239D01*
X661330Y563232D01*
X661287Y563234D01*
X661220Y563212D01*
X661151Y563200D01*
X661114Y563178D01*
X661074Y563165D01*
X661001Y563111D01*
X660957Y563085D01*
X660944Y563069D01*
X660923Y563053D01*
X660156Y562286D01*
X656421Y560739D01*
X642379Y560739D01*
G37*
%LPD*%
D10*
X573400Y669100D03*
X573400Y652100D03*
D11*
X737480Y639900D02*
X752720Y639900D01*
X752720Y614500D02*
X737480Y614500D01*
X542020Y601800D02*
X526780Y601800D01*
X526780Y627200D02*
X542020Y627200D01*
X542020Y652600D02*
X526780Y652600D01*
D12*
X707100Y639100D03*
X707100Y656100D03*
X707100Y599000D03*
X707100Y582000D03*
D10*
X649400Y576400D03*
X632400Y576400D03*
D13*
X613900Y644150D03*
X613900Y631450D03*
X613900Y618750D03*
X613900Y606050D03*
X667900Y606050D03*
X667900Y618750D03*
X667900Y631450D03*
X667900Y644150D03*
D14*
X667900Y631450D02*
X682450Y631450D01*
X690100Y639100D01*
X702000Y639100D01*
X707100Y639100D01*
X744300Y639100D02*
X745100Y639900D01*
X744300Y639100D02*
X707100Y639100D01*
X701000Y618750D02*
X667900Y618750D01*
X701000Y618750D02*
X706000Y618750D01*
X711000Y618750D01*
X740850Y618750D01*
X745100Y614500D01*
X707100Y599000D02*
X706000Y600100D01*
X706000Y613750D01*
X706000Y618750D01*
X701000Y618750D02*
X706000Y613750D01*
X711000Y618750D01*
X573400Y652100D02*
X572900Y652600D01*
X534400Y652600D01*
X573400Y652100D02*
X583000Y652100D01*
X599850Y644150D02*
X613900Y644150D01*
X599850Y644150D02*
X595000Y644150D01*
X590950Y644150D01*
X583000Y652100D01*
X707100Y656100D02*
X707100Y670100D01*
X716000Y679000D01*
X767000Y679000D01*
X774000Y672000D01*
X774000Y588000D01*
X768000Y582000D01*
X707100Y582000D01*
X707000Y679000D02*
X716000Y679000D01*
X707000Y679000D02*
X698200Y679000D01*
X698000Y679000D02*
X610000Y679000D01*
X595000Y664000D02*
X595000Y649000D01*
X595000Y644150D01*
X595000Y664000D02*
X610000Y679000D01*
X595000Y649000D02*
X599850Y644150D01*
X590950Y644150D02*
X590950Y644950D01*
X595000Y649000D01*
X707100Y670100D02*
X707100Y678900D01*
X707000Y679000D01*
X698200Y679000D02*
X698000Y679000D01*
X698200Y679000D02*
X707100Y670100D01*
X613900Y618750D02*
X556250Y618750D01*
X547800Y627200D02*
X534400Y627200D01*
X547800Y627200D02*
X556250Y618750D01*
X534400Y601800D02*
X578200Y601800D01*
X579200Y600800D02*
X586800Y600800D01*
X592050Y606050D02*
X613900Y606050D01*
X592050Y606050D02*
X586800Y600800D01*
X573400Y669100D02*
X496100Y669100D01*
X487000Y660000D02*
X487000Y609000D01*
X494200Y601800D01*
X534400Y601800D01*
X487000Y660000D02*
X496100Y669100D01*
X603600Y576400D02*
X632400Y576400D01*
X603600Y576400D02*
X586800Y593200D01*
X579200Y600800D01*
X578200Y601800D01*
X586800Y600800D02*
X586800Y593200D01*
X667900Y606050D02*
X678950Y606050D01*
X685000Y600000D01*
X685000Y582000D01*
X679400Y576400D01*
X649400Y576400D01*
M02*
